<svg width="223" height="496" viewBox="0 0 223 496" fill="none" xmlns="http://www.w3.org/2000/svg">
<g clip-path="url(#clip0_34_2614)">
<path d="M100.285 489.708L281.944 460.478L382.493 444.299L326.271 385.507L61.9381 428.039L70.2658 455.577L100.285 489.708Z" fill="#172B4D"/>
<path d="M263.619 8.95481L317.683 41.5089L167.467 465.605L100.285 489.708L70.2657 455.577L61.938 428.04L160.525 185.972L184.463 163.786L174.807 140.816L219.164 27.567L263.619 8.95481Z" fill="white"/>
<mask id="mask0_34_2614" style="mask-type:alpha" maskUnits="userSpaceOnUse" x="61" y="8" width="257" height="482">
<path d="M263.619 8.95481L317.683 41.5089L167.467 465.605L100.285 489.708L70.2657 455.577L61.938 428.04L160.525 185.972L184.463 163.786L174.807 140.816L219.164 27.567L263.619 8.95481Z" fill="white"/>
</mask>
<g mask="url(#mask0_34_2614)">
<path d="M152.767 228.931L160.257 207.099L181.297 203.943L188.448 182.854L167.632 185.974L174.855 165.331L154.002 168.228L146.369 189.166L138.583 210.587L116.65 213.887L108.302 236.086L85.5466 239.976L76.6721 263.177L99.8382 258.991L122.593 255.1L130.646 232.49L152.767 228.931Z" fill="#C5E9DA"/>
<path d="M174.182 225.256L195.185 221.877L202.077 200.6L181.297 203.943L174.182 225.256Z" fill="#36B37E"/>
<path d="M144.866 251.059L166.727 247.312L174.182 225.257L152.767 228.932L144.866 251.059Z" fill="#36B37E"/>
<path d="M159.122 269.849L180.947 265.879L188.142 243.637L166.727 247.312L159.122 269.849Z" fill="#172B4D"/>
<path d="M136.885 274.115L144.866 251.059L122.593 255.101L114.166 278.229L105.623 302.064L128.717 297.431L151.4 293.094L159.121 269.85L136.885 274.115Z" fill="#172B4D"/>
<path d="M195.26 162.506L188.448 182.854L208.817 179.805L202.077 200.6L222.446 197.551L228.999 177.016L235.176 157L215.441 159.717L221.878 139.888L228.2 120.766L208.617 123L202.108 142.382L181.926 145.171L174.855 165.331L195.26 162.506Z" fill="#36B37E"/>
<path d="M188.586 125.307L168.369 127.872L161.261 147.809L181.926 145.172L188.586 125.307Z" fill="#172B4D"/>
<path d="M195.185 221.877L188.142 243.637L209.109 240.034L229.594 236.279L236.039 215.074L242.332 194.352L222.446 197.551L215.965 218.533L195.185 221.877Z" fill="#36B37E"/>
<path d="M195.203 284.671L202.326 261.981L180.947 265.88L173.413 288.864L195.203 284.671Z" fill="#36B37E"/>
<path d="M143.304 316.857L165.728 312.332L173.413 288.864L151.4 293.094L143.304 316.857Z" fill="#36B37E"/>
<path d="M161.261 147.809L140.373 150.482L132.668 170.974L154.002 168.228L161.261 147.809Z" fill="#36B37E"/>
</g>
<path d="M263.619 8.95481L100.285 489.708L167.467 465.605L317.683 41.5089L263.619 8.95481Z" fill="#C5E9DA"/>
<path d="M263.619 8.95481L317.683 41.5089L167.467 465.605L100.285 489.708L70.2657 455.577L61.938 428.04L160.525 185.972L184.463 163.785L174.807 140.816L219.164 27.567L263.619 8.95481Z" stroke="#36B37E" stroke-width="1.57158" stroke-miterlimit="10" stroke-linejoin="round"/>
<path d="M205.393 179.899L226.324 196.011L198.394 200.506L205.393 179.899Z" fill="white"/>
<path d="M263.161 195.585L226.324 196.012L205.393 179.899L184.463 163.786" stroke="#36B37E" stroke-width="1.57158" stroke-miterlimit="10" stroke-linejoin="round"/>
<path d="M226.324 196.011L198.394 200.505L170.28 283.639" stroke="#36B37E" stroke-width="1.57158" stroke-miterlimit="10" stroke-linejoin="round"/>
<path d="M298.59 95.2303L252.117 42.891L208.442 54.9604" stroke="#36B37E" stroke-width="1.57158" stroke-miterlimit="10" stroke-linejoin="round"/>
<path d="M221.374 51.2758L212.18 45.4212" stroke="#36B37E" stroke-width="1.57158" stroke-miterlimit="10" stroke-linejoin="round"/>
<path d="M163.281 304.246L127.021 268.369L61.938 428.039L70.2657 455.577L100.285 489.708L163.281 304.246Z" fill="white" stroke="#36B37E" stroke-width="1.57158" stroke-miterlimit="10" stroke-linejoin="round"/>
<path d="M218.344 324.492L159.081 316.61L154.326 295.603L165.459 300.687L218.344 324.492Z" fill="#172B4D"/>
</g>
<defs>
<clipPath id="clip0_34_2614">
<rect width="316.165" height="450.963" fill="white" transform="matrix(-0.987301 0.15886 0.15886 0.987301 312.15 0)"/>
</clipPath>
</defs>
</svg>
