<svg width="1473" height="1436" viewBox="0 0 1473 1436" fill="none" xmlns="http://www.w3.org/2000/svg">
<path d="M128.813 1117.73L400.472 940.011" stroke="#A5ADBA" stroke-miterlimit="10" stroke-linecap="round" stroke-dasharray="1 1"/>
<path d="M47.8551 878.828L356.781 817.062" stroke="#A5ADBA" stroke-miterlimit="10" stroke-linecap="round" stroke-dasharray="1 1"/>
<path d="M44.0001 622.734L352.926 684.5" stroke="#A5ADBA" stroke-miterlimit="10" stroke-linecap="round" stroke-dasharray="1 1"/>
<path d="M117.504 380.625L389.163 558.347" stroke="#A5ADBA" stroke-miterlimit="10" stroke-linecap="round" stroke-dasharray="1 1"/>
<path d="M259.631 181.635L461.383 454.044" stroke="#A5ADBA" stroke-miterlimit="10" stroke-linecap="round" stroke-dasharray="1 1"/>
<path d="M453.416 49.9463L560.589 383.83" stroke="#A5ADBA" stroke-miterlimit="10" stroke-linecap="round" stroke-dasharray="1 1"/>
<path d="M686.524 1V356.443" stroke="#A5ADBA" stroke-miterlimit="10" stroke-linecap="round" stroke-dasharray="1 1"/>
<path d="M898.044 41.2061L790.871 375.089" stroke="#A5ADBA" stroke-miterlimit="10" stroke-linecap="round" stroke-dasharray="1 1"/>
<path d="M1095.68 165.319L894.188 437.437" stroke="#A5ADBA" stroke-miterlimit="10" stroke-linecap="round" stroke-dasharray="1 1"/>
<path d="M1243.72 358.482L972.319 536.204" stroke="#A5ADBA" stroke-miterlimit="10" stroke-linecap="round" stroke-dasharray="1 1"/>
<path d="M1324.68 597.679L1016.01 659.153" stroke="#A5ADBA" stroke-miterlimit="10" stroke-linecap="round" stroke-dasharray="1 1"/>
<path d="M1328.79 853.48L1019.87 791.715" stroke="#A5ADBA" stroke-miterlimit="10" stroke-linecap="round" stroke-dasharray="1 1"/>
<path d="M1255.03 1095.59L983.627 917.868" stroke="#A5ADBA" stroke-miterlimit="10" stroke-linecap="round" stroke-dasharray="1 1"/>
<path d="M1112.9 1294.58L911.409 1022.17" stroke="#A5ADBA" stroke-miterlimit="10" stroke-linecap="round" stroke-dasharray="1 1"/>
<path d="M919.374 1426.56L812.201 1092.38" stroke="#A5ADBA" stroke-miterlimit="10" stroke-linecap="round" stroke-dasharray="1 1"/>
<path d="M686.524 1348.77L686.524 1119.77" stroke="#A5ADBA" stroke-miterlimit="10" stroke-linecap="round" stroke-dasharray="1 1"/>
<path d="M474.491 1435.3L581.921 1101.12" stroke="#A5ADBA" stroke-miterlimit="10" stroke-linecap="round" stroke-dasharray="1 1"/>
<path d="M277.107 1310.9L478.603 1038.78" stroke="#A5ADBA" stroke-miterlimit="10" stroke-linecap="round" stroke-dasharray="1 1"/>
<path d="M128.813 1117.73L400.472 940.011" stroke="#A5ADBA" stroke-miterlimit="10" stroke-linecap="round" stroke-dasharray="1 1"/>
<path d="M47.8551 878.828L356.781 817.062" stroke="#A5ADBA" stroke-miterlimit="10" stroke-linecap="round" stroke-dasharray="1 1"/>
<path d="M44.0001 622.734L352.926 684.5" stroke="#A5ADBA" stroke-miterlimit="10" stroke-linecap="round" stroke-dasharray="1 1"/>
<path d="M117.504 380.625L389.163 558.347" stroke="#A5ADBA" stroke-miterlimit="10" stroke-linecap="round" stroke-dasharray="1 1"/>
<path d="M259.631 181.635L461.383 454.044" stroke="#A5ADBA" stroke-miterlimit="10" stroke-linecap="round" stroke-dasharray="1 1"/>
<path d="M453.416 49.9463L560.589 383.83" stroke="#A5ADBA" stroke-miterlimit="10" stroke-linecap="round" stroke-dasharray="1 1"/>
<g clip-path="url(#clip0_71152_237)">
<path d="M1114.27 699.424L1232.14 577.735L1403.88 620.388L1285.33 742.039L1114.27 699.424Z" fill="#C5E9DA" stroke="#36B37E" stroke-width="2.29137" stroke-miterlimit="10" stroke-linejoin="round"/>
<path d="M1285.33 742.039L1403.88 620.389L1440.51 787.633L1330.23 906.573L1285.33 742.039Z" fill="white" stroke="#36B37E" stroke-width="2.29137" stroke-miterlimit="10" stroke-linejoin="round"/>
<path d="M1285.33 742.038L1213.12 805.489L1330.23 906.572L1285.33 742.038Z" fill="white" stroke="#36B37E" stroke-width="2.29137" stroke-miterlimit="10" stroke-linejoin="round"/>
<path d="M1213.12 805.49L1114.27 699.424L1285.33 742.039L1213.12 805.49Z" fill="white" stroke="#36B37E" stroke-width="2.29137" stroke-miterlimit="10" stroke-linejoin="round"/>
<path d="M1330.23 906.573L1158.14 860.18L1213.12 805.49L1330.23 906.573Z" fill="#C5E9DA" stroke="#36B37E" stroke-width="2.29137" stroke-miterlimit="10" stroke-linejoin="round"/>
<path d="M1114.27 699.424L1158.14 860.18L1213.12 805.49L1114.27 699.424Z" fill="white" stroke="#36B37E" stroke-width="2.29137" stroke-miterlimit="10" stroke-linejoin="round"/>
<path d="M1249.12 773.792L1270.98 754.747L1249.12 773.792Z" fill="#644DF2"/>
<path d="M1266.23 737.329L1270.98 754.748L1285.33 742.039L1266.23 737.329Z" fill="#36B37E"/>
<path d="M1266.23 737.329L1382.61 615.145L1353.11 607.861L1237.21 730.141L1266.23 737.329Z" fill="#36B37E"/>
<path d="M1215.4 724.592L1331.78 602.408L1302.28 595.124L1186.38 717.404L1215.4 724.592Z" fill="#36B37E"/>
<path d="M1215.4 724.592L1233.04 789.23L1249.12 773.792L1237.21 730.14L1215.4 724.592Z" fill="#36B37E"/>
<path d="M1186.38 717.404L1209.28 801.35L1158.89 747.23L1148.12 707.775L1186.38 717.404Z" fill="#36B37E"/>
<path d="M1148.12 707.775L1165.96 690.506L1131.31 681.697L1114.27 699.424L1148.12 707.775Z" fill="#172B4D"/>
<path d="M1202.69 700.326L1219.3 682.713L1181.52 673.179L1164.43 690.697L1202.69 700.326Z" fill="#172B4D"/>
<path d="M1181.52 673.179L1199.36 655.909L1164.71 647.1L1147.62 664.618L1181.52 673.179Z" fill="#172B4D"/>
<path d="M1208.52 810.127L1213.12 805.49L1175.71 865.081L1158.14 860.18L1208.52 810.127Z" fill="#172B4D"/>
<path d="M1415.4 672.492L1393.63 696.021L1402.45 733.301L1423.65 710.154L1415.4 672.492Z" fill="#36B37E"/>
<path d="M1400.6 725.688L1406.69 753.791L1385.5 776.938L1378.93 748.739L1307.78 824.305C1307.78 824.305 1327.25 895.659 1330.23 906.572C1333.2 917.485 1440.56 787.842 1440.56 787.842L1421.97 703.171L1400.6 725.688Z" fill="#172B4D"/>
</g>
<g opacity="0.88">
<g clip-path="url(#clip1_71152_237)">
<path d="M395.706 1179.1L354.867 1243.87L274.94 1240.95L316.087 1176.13L395.706 1179.1Z" fill="#C5E9DA" stroke="#36B37E" stroke-width="1.11251" stroke-miterlimit="10" stroke-linejoin="round"/>
<path d="M316.088 1176.13L274.941 1240.95L243.213 1170.38L280.949 1107.53L316.088 1176.13Z" fill="white" stroke="#36B37E" stroke-width="1.11251" stroke-miterlimit="10" stroke-linejoin="round"/>
<path d="M316.087 1176.13L342.135 1141.36L280.949 1107.53L316.087 1176.13Z" fill="white" stroke="#36B37E" stroke-width="1.11251" stroke-miterlimit="10" stroke-linejoin="round"/>
<path d="M342.135 1141.36L395.707 1179.1L316.088 1176.13L342.135 1141.36Z" fill="white" stroke="#36B37E" stroke-width="1.11251" stroke-miterlimit="10" stroke-linejoin="round"/>
<path d="M280.949 1107.53L361.375 1112.07L342.135 1141.36L280.949 1107.53Z" fill="#C5E9DA" stroke="#36B37E" stroke-width="1.11251" stroke-miterlimit="10" stroke-linejoin="round"/>
<path d="M395.707 1179.1L361.375 1112.07L342.135 1141.36L395.707 1179.1Z" fill="white" stroke="#36B37E" stroke-width="1.11251" stroke-miterlimit="10" stroke-linejoin="round"/>
<path d="M329.155 1158.73L321.253 1169.18L329.155 1158.73Z" fill="#644DF2"/>
<path d="M324.973 1176.44L321.253 1169.18L316.088 1176.13L324.973 1176.44Z" fill="#36B37E"/>
<path d="M324.973 1176.44L284.838 1241.3L298.562 1241.78L338.477 1176.93L324.973 1176.44Z" fill="#36B37E"/>
<path d="M348.639 1177.36L308.504 1242.21L322.228 1242.69L362.144 1177.84L348.639 1177.36Z" fill="#36B37E"/>
<path d="M348.639 1177.36L334.835 1150.4L329.155 1158.73L338.477 1176.93L348.639 1177.36Z" fill="#36B37E"/>
<path d="M362.143 1177.84L344.216 1142.84L371.533 1162.1L379.959 1178.55L362.143 1177.84Z" fill="#36B37E"/>
<path d="M379.959 1178.55L373.673 1187.85L389.818 1188.53L395.707 1179.1L379.959 1178.55Z" fill="#172B4D"/>
<path d="M356.515 1186.91L350.801 1196.25L368.397 1196.95L374.331 1187.62L356.515 1186.91Z" fill="#172B4D"/>
<path d="M368.397 1196.96L362.111 1206.25L378.255 1206.93L384.189 1197.59L368.397 1196.96Z" fill="#172B4D"/>
<path d="M343.738 1138.89L342.135 1141.36L353.147 1111.53L361.375 1112.07L343.738 1138.89Z" fill="#172B4D"/>
<path d="M265.01 1218.97L272.453 1206.55L265.09 1190.88L257.865 1203.08L265.01 1218.97Z" fill="#36B37E"/>
<path d="M266.616 1194.07L261.312 1182.21L268.538 1170L274.061 1181.86L298.518 1141.83C298.518 1141.83 283.28 1112.08 280.949 1107.53C278.618 1102.97 243.168 1170.29 243.168 1170.29L259.256 1206.01L266.616 1194.07Z" fill="#172B4D"/>
</g>
</g>
<g opacity="0.32">
<g clip-path="url(#clip2_71152_237)">
<path d="M515.39 493.19L533.644 516.444L522.213 545.129L503.981 521.757L515.39 493.19Z" fill="#C5E9DA" stroke="#36B37E" stroke-width="1.11251" stroke-miterlimit="10" stroke-linejoin="round"/>
<path d="M503.981 521.757L522.213 545.128L492.433 547.509L474.474 525.633L503.981 521.757Z" fill="white" stroke="#36B37E" stroke-width="1.11251" stroke-miterlimit="10" stroke-linejoin="round"/>
<path d="M503.981 521.756L494.717 507.774L474.474 525.632L503.981 521.756Z" fill="white" stroke="#36B37E" stroke-width="1.11251" stroke-miterlimit="10" stroke-linejoin="round"/>
<path d="M494.717 507.774L515.39 493.189L503.981 521.757L494.717 507.774Z" fill="white" stroke="#36B37E" stroke-width="1.11251" stroke-miterlimit="10" stroke-linejoin="round"/>
<path d="M474.474 525.633L486.56 496.977L494.717 507.774L474.474 525.633Z" fill="#C5E9DA" stroke="#36B37E" stroke-width="1.11251" stroke-miterlimit="10" stroke-linejoin="round"/>
<path d="M515.39 493.189L486.56 496.977L494.717 507.774L515.39 493.189Z" fill="white" stroke="#36B37E" stroke-width="1.11251" stroke-miterlimit="10" stroke-linejoin="round"/>
<path d="M499.347 514.747L502.123 518.976L499.347 514.747Z" fill="#644DF2"/>
<path d="M505.247 518.565L502.123 518.976L503.981 521.756L505.247 518.565Z" fill="#36B37E"/>
<path d="M505.247 518.566L523.622 541.574L525.578 536.646L507.175 513.718L505.247 518.566Z" fill="#36B37E"/>
<path d="M508.65 510.078L527.025 533.087L528.981 528.159L510.578 505.231L508.65 510.078Z" fill="#36B37E"/>
<path d="M508.65 510.078L497.058 511.601L499.347 514.746L507.175 513.718L508.65 510.078Z" fill="#36B37E"/>
<path d="M510.578 505.23L495.523 507.208L506.071 499.773L513.146 498.844L510.578 505.23Z" fill="#36B37E"/>
<path d="M513.147 498.844L515.711 502.336L518.053 496.553L515.39 493.189L513.147 498.844Z" fill="#172B4D"/>
<path d="M513.145 508.455L515.798 511.743L518.339 505.437L515.714 502.068L513.145 508.455Z" fill="#172B4D"/>
<path d="M518.339 505.437L520.903 508.928L523.245 503.146L520.62 499.777L518.339 505.437Z" fill="#172B4D"/>
<path d="M494.024 506.869L494.717 507.774L485.298 499.899L486.56 496.977L494.024 506.869Z" fill="#172B4D"/>
<path d="M512.932 545.887L509.379 541.568L502.725 542.213L506.226 546.424L512.932 545.887Z" fill="#36B37E"/>
<path d="M504.085 542.073L499.082 542.462L495.581 538.251L500.611 537.781L489.228 523.694C489.228 523.694 476.431 525.375 474.474 525.632C472.517 525.89 492.395 547.514 492.395 547.514L507.473 546.299L504.085 542.073Z" fill="#172B4D"/>
</g>
</g>
<g clip-path="url(#clip3_71152_237)">
<path d="M30.2923 748.725L178.988 656.453C178.988 656.453 59.7304 844.868 57.7307 844.056C57.7307 844.056 39.1871 774.239 30.2923 748.725Z" fill="white" stroke="#36B37E" stroke-width="1.43899" stroke-miterlimit="10" stroke-linejoin="round"/>
<path d="M178.988 656.453L183.47 662.623C183.47 662.623 188.303 857.183 187.999 859.079C187.695 860.975 190.678 862.808 185.995 864.012C181.312 865.216 98.3842 852.184 77.9908 848.093C57.7306 844.056 57.7306 844.056 57.7306 844.056L178.988 656.453Z" fill="#36B37E"/>
<path d="M86.7357 737.485L123.14 835.215L185.449 801.506L182.954 699.068L86.7357 737.485Z" fill="#C5E9DA"/>
<mask id="mask0_71152_237" style="mask-type:alpha" maskUnits="userSpaceOnUse" x="87" y="699" width="99" height="137">
<path d="M87.2161 738.19L123.62 835.92L185.93 802.211L183.434 699.773L87.2161 738.19Z" fill="#C5E9DA"/>
</mask>
<g mask="url(#mask0_71152_237)">
<path d="M176.527 797.561L159.871 794.211L159.487 815.8L141.573 812.871L140.431 836.327L159.017 838.752L176.694 841.118L193.463 843.426L192.779 821.404L176.494 818.671L176.527 797.561Z" fill="#36B37E"/>
<path d="M142.439 790.858L159.871 794.212L160.221 773.852L143.46 769.994L142.439 790.858Z" fill="#36B37E"/>
<path d="M124.208 787.179L122.671 809.697L141.573 812.872L142.439 790.858L124.208 787.179Z" fill="#36B37E"/>
<path d="M124.208 787.179L125.658 766.023L107.002 761.861L104.935 783.387L124.208 787.179Z" fill="#36B37E"/>
<path d="M104.935 783.388L84.8085 779.405L81.7964 802.878L78.5884 827.979L100.377 830.928L120.992 833.711L122.671 809.698L102.727 806.41L104.935 783.388Z" fill="#36B37E"/>
<path d="M222.013 806.411L220.672 787.538L206.607 784.309L191.821 780.943L191.334 762.262L176.389 758.52L160.725 754.642L160.22 773.852L176.448 777.493L176.527 797.562L192.383 800.586L192.779 821.405L208.344 824L207.465 803.607L222.013 806.411Z" fill="#36B37E"/>
<path d="M204.982 748.546L190.867 744.676L191.334 762.261L205.823 765.974L204.982 748.546Z" fill="#36B37E"/>
<path d="M144.26 750.437L160.725 754.641L161.037 736.285L145.135 731.844L128.378 727.211L127.074 746.096L125.658 766.023L143.46 769.993L144.26 750.437Z" fill="#36B37E"/>
<path d="M109.035 741.563L90.1954 736.705L87.5457 757.374L107.002 761.861L109.035 741.563Z" fill="#36B37E"/>
<path d="M66.9147 752.72L63.3735 775.201L84.8085 779.405L87.5457 757.374L66.9147 752.72Z" fill="#36B37E"/>
</g>
<path d="M86.7358 737.485L140.509 715.996L101.751 777.755L86.7358 737.485Z" fill="#172B4D"/>
<path d="M57.3724 731.769L45.7279 800.194" stroke="#36B37E" stroke-width="1.43899" stroke-miterlimit="10" stroke-linejoin="round"/>
<path d="M54.9436 746.159L50.2942 736.194L57.3725 731.769L54.9436 746.159Z" fill="#172B4D"/>
<path d="M150.728 674.018L165.11 677.997" stroke="#36B37E" stroke-width="1.43899" stroke-miterlimit="10" stroke-linejoin="round"/>
<path d="M97.022 767.603L132.48 857.338" stroke="white" stroke-width="1.43899" stroke-miterlimit="10" stroke-linejoin="round"/>
</g>
<g clip-path="url(#clip4_71152_237)">
<path d="M1058.3 505.296L949.432 490.854L903.976 446.756L910.009 335.379L924.795 314.072L957.777 318.684L1064.14 433.294L1058.3 505.296Z" fill="#C5E9DA" stroke="#36B37E" stroke-width="1.51665" stroke-miterlimit="10" stroke-linejoin="round"/>
<path d="M986.28 495.748L983.764 463.727C983.764 463.727 972.766 493.939 968.192 493.349C963.492 492.673 986.28 495.748 986.28 495.748Z" fill="#36B37E"/>
<path d="M1012.3 499.221L1037.25 404.478" stroke="#36B37E" stroke-width="1.51665" stroke-miterlimit="10"/>
<path d="M1030.96 428.173L1029.09 395.49" stroke="#36B37E" stroke-width="1.51665" stroke-miterlimit="10"/>
<path d="M909.495 358.804L953.99 387.704L965.004 400.6L953.453 409.243L908.71 372.747L909.495 358.804Z" fill="white" stroke="#36B37E" stroke-width="1.51665"/>
<path d="M983.322 479.129L983.655 429.701" stroke="#36B37E" stroke-width="1.51665" stroke-miterlimit="10"/>
<path d="M908.244 367.584L908.677 366.961L921.925 373.939L943.715 394.414L954.495 387.127L957.833 318.738L924.85 314.126L910.064 335.433L908.244 367.584Z" fill="#172B4D"/>
<path d="M921.147 375.061L908.272 368.342L904.031 446.81L949.487 490.908L953.433 410.204L947.717 400.884L921.147 375.061Z" fill="#172B4D"/>
</g>
<g opacity="0.48" clip-path="url(#clip5_71152_237)">
<path d="M544.806 1024.85L628.36 1075.82C628.36 1075.82 640.732 1085.57 629.1 1106.56C617.467 1127.55 603.373 1122.46 603.373 1122.46L516.596 1072.51C516.596 1072.51 506.313 1063.04 516.626 1043.62C528.555 1021.04 544.806 1024.85 544.806 1024.85Z" fill="#C5E9DA" stroke="#36B37E" stroke-width="0.736762" stroke-miterlimit="10"/>
<path d="M544.805 1024.85C544.805 1024.85 556.647 1032.11 544.013 1056.02C532.14 1078.4 516.596 1072.51 516.596 1072.51C516.596 1072.51 506.608 1062.21 516.625 1043.62C526.643 1025.04 538.666 1024.71 544.805 1024.85Z" fill="#36B37E"/>
<path d="M621.728 1071.74C621.728 1071.74 614.002 1083.5 593.66 1091.63C572.087 1100.27 559.799 1097.38 559.799 1097.38L577.23 1107.44C577.23 1107.44 586.378 1109.37 608.929 1098.85C627.34 1090.27 632.597 1081.81 632.597 1081.81L628.26 1075.79L621.728 1071.74Z" fill="#172B4D"/>
<path d="M592.106 1053.93C592.106 1053.93 584.626 1064.47 562.498 1071.64C540.369 1078.82 525.18 1077.53 525.18 1077.53L542.611 1087.6C542.611 1087.6 556.733 1089.39 576.674 1081.15C595.154 1073.46 605.706 1062.24 605.706 1062.24L595.015 1055.69L592.106 1053.93Z" fill="#36B37E"/>
<path d="M544.013 1056.02C544.013 1056.02 567.202 1057.76 580.83 1046.78L565.88 1037.7C565.88 1037.7 559.062 1040.29 549.733 1038.8C549.733 1038.8 547.276 1049.58 544.013 1056.02Z" fill="#172B4D"/>
<path d="M535.16 1046.85L532.217 1050.67L533.201 1068.14C533.201 1068.14 539.967 1063.47 544.013 1056.02L540.425 1047.39L535.16 1046.85Z" fill="white" stroke="#36B37E" stroke-width="0.736762" stroke-miterlimit="10"/>
<path d="M548.422 1030.18C548.422 1030.18 547.422 1025.93 544.77 1024.79L530.734 1045.09C530.734 1045.09 535.618 1046.77 536.833 1047.44C538.084 1048.18 540.378 1049.44 540.378 1049.44L548.985 1043.84C549.02 1043.9 551.97 1037.06 548.422 1030.18Z" fill="white" stroke="#36B37E" stroke-width="0.736762" stroke-miterlimit="10"/>
<path d="M631.436 1101.65C631.436 1101.65 618.907 1110.51 603.623 1113.31C589.419 1115.94 588.108 1113.72 588.108 1113.72L603.373 1122.46C603.373 1122.46 609.895 1124.66 618.064 1119.64C626.233 1114.62 631.436 1101.65 631.436 1101.65Z" fill="#36B37E"/>
<path d="M536.869 1047.51C536.869 1047.51 535.774 1040.96 534.462 1038.73C533.151 1036.51 532.859 1035.83 532.859 1035.83L529.755 1041.34L530.77 1045.15L536.869 1047.51Z" fill="white" stroke="#36B37E" stroke-width="0.736762" stroke-miterlimit="10"/>
<path d="M532.153 1050.7L527.825 1049.73L512.312 1062.17C512.312 1062.17 511.914 1063.74 514.142 1068.99L515.519 1071.17L533.892 1053.7C533.827 1053.73 534.348 1051.17 532.153 1050.7Z" fill="white" stroke="#36B37E" stroke-width="0.736762" stroke-miterlimit="10"/>
<path d="M532.153 1050.7C532.153 1050.7 526.405 1060.86 526.627 1060.66C526.85 1060.45 535.463 1055.02 535.463 1055.02C535.463 1055.02 535.151 1050.64 532.153 1050.7Z" fill="white" stroke="#36B37E" stroke-width="0.736762" stroke-miterlimit="10"/>
</g>
<g clip-path="url(#clip6_71152_237)">
<path d="M919.353 1214.52L1012.29 1055.53C1012.29 1055.53 1030.19 1031.9 1070.09 1053.05C1110 1074.19 1100.92 1100.89 1100.92 1100.89L1010.01 1265.91C1010.01 1265.91 992.562 1285.59 955.663 1266.87C912.749 1245.23 919.353 1214.52 919.353 1214.52Z" fill="#C5E9DA" stroke="#36B37E" stroke-width="1.38636" stroke-miterlimit="10"/>
<path d="M919.354 1214.52C919.354 1214.52 932.598 1191.98 978.011 1214.91C1020.55 1236.46 1010.02 1265.91 1010.02 1265.91C1010.02 1265.91 990.979 1285.06 955.664 1266.87C920.349 1248.68 919.302 1226.07 919.354 1214.52Z" fill="#36B37E"/>
<path d="M1004.85 1068.15C1004.85 1068.15 1027.25 1082.27 1043.26 1120.25C1060.27 1160.53 1055.27 1183.75 1055.27 1183.75L1073.59 1150.6C1073.59 1150.6 1076.9 1133.32 1056.3 1091.27C1039.52 1056.93 1023.42 1047.34 1023.42 1047.34L1012.24 1055.71L1004.85 1068.15Z" fill="#172B4D"/>
<path d="M972.398 1124.5C972.398 1124.5 992.475 1138.2 1006.76 1179.58C1021.04 1220.96 1019.16 1249.58 1019.16 1249.58L1037.48 1216.43C1037.48 1216.43 1040.35 1189.8 1024.14 1152.58C1009.03 1118.08 987.552 1098.62 987.552 1098.62L975.606 1118.97L972.398 1124.5Z" fill="#36B37E"/>
<path d="M978.011 1214.91C978.011 1214.91 980.482 1171.22 959.339 1145.97L942.785 1174.42C942.785 1174.42 947.898 1187.15 945.414 1204.76C945.414 1204.76 965.793 1209 978.011 1214.91Z" fill="#172B4D"/>
<path d="M961.08 1231.89L968.36 1237.29L1001.19 1234.82C1001.19 1234.82 992.178 1222.26 978.011 1214.91L961.912 1221.96L961.08 1231.89Z" fill="white" stroke="#36B37E" stroke-width="1.38636" stroke-miterlimit="10"/>
<path d="M929.245 1207.53C929.245 1207.53 921.292 1209.56 919.234 1214.59L957.919 1240.28C957.919 1240.28 960.904 1231.03 962.132 1228.72C963.479 1226.34 965.764 1221.98 965.764 1221.98L954.929 1205.99C955.049 1205.92 942.059 1200.61 929.245 1207.53Z" fill="white" stroke="#36B37E" stroke-width="1.38636" stroke-miterlimit="10"/>
<path d="M1060.77 1048.83C1060.77 1048.83 1077.88 1072.08 1083.7 1100.74C1089.15 1127.37 1085.02 1129.92 1085.02 1129.92L1100.92 1100.89C1100.92 1100.89 1104.83 1088.54 1095.1 1073.35C1085.37 1058.16 1060.77 1048.83 1060.77 1048.83Z" fill="#36B37E"/>
<path d="M962.252 1228.65C962.252 1228.65 949.967 1230.94 945.834 1233.49C941.701 1236.03 940.431 1236.61 940.431 1236.61L950.894 1242.25L958.039 1240.21L962.252 1228.65Z" fill="white" stroke="#36B37E" stroke-width="1.38636" stroke-miterlimit="10"/>
<path d="M968.429 1237.41L966.746 1245.59L990.708 1274.33C990.708 1274.33 993.668 1275.03 1003.47 1270.65L1007.53 1267.98L974.003 1234.03C974.072 1234.15 969.236 1233.26 968.429 1237.41Z" fill="white" stroke="#36B37E" stroke-width="1.38636" stroke-miterlimit="10"/>
<path d="M968.43 1237.41C968.43 1237.41 987.753 1247.87 987.355 1247.46C986.958 1247.04 976.432 1231.03 976.432 1231.03C976.432 1231.03 968.215 1231.77 968.43 1237.41Z" fill="white" stroke="#36B37E" stroke-width="1.38636" stroke-miterlimit="10"/>
</g>
<defs>
<clipPath id="clip0_71152_237">
<rect width="302.379" height="345.234" fill="white" transform="translate(1090.2 615.345) rotate(-15.2643)"/>
</clipPath>
<clipPath id="clip1_71152_237">
<rect width="136.667" height="156.036" fill="white" transform="translate(414.162 1214.06) rotate(152.88)"/>
</clipPath>
<clipPath id="clip2_71152_237">
<rect width="52.7646" height="60.2428" fill="white" transform="translate(530.495 491.014) rotate(82.5164)"/>
</clipPath>
<clipPath id="clip3_71152_237">
<rect width="217" height="220.885" fill="white" transform="translate(83.1364 616.736) rotate(22.1095)"/>
</clipPath>
<clipPath id="clip4_71152_237">
<rect width="220.218" height="147.722" fill="white" transform="translate(1029.92 547.649) rotate(-145.241)"/>
</clipPath>
<clipPath id="clip5_71152_237">
<rect width="123.408" height="98.3577" fill="white" transform="translate(586.088 996.736) rotate(61.0741)"/>
</clipPath>
<clipPath id="clip6_71152_237">
<rect width="232.215" height="185.079" fill="white" transform="translate(865 1137.84) rotate(-30)"/>
</clipPath>
</defs>
</svg>
