<svg width="180" height="180" viewBox="0 0 180 180" fill="none" xmlns="http://www.w3.org/2000/svg">
<circle cx="90" cy="90" r="87" fill="white" stroke="#36B37E" stroke-width="6"/>
<path d="M30.04 125.824L34.392 112.896C39.3413 116.139 43.352 118.357 46.424 119.552C49.5813 120.747 52.824 121.344 56.152 121.344C61.784 121.344 66.2213 119.637 69.464 116.224C69.72 114.944 69.848 113.621 69.848 112.256C69.848 108.245 68.4827 104.875 65.752 102.144C63.1067 99.4133 59.864 97.2373 56.024 95.616C52.2693 93.9947 48.472 92.288 44.632 90.496C40.792 88.704 37.5067 86.144 34.776 82.816C32.1307 79.488 30.808 75.3493 30.808 70.4C30.808 64 33.4533 58.8373 38.744 54.912C44.12 50.9867 51.16 49.024 59.864 49.024C65.9227 49.024 71.5973 50.2187 76.888 52.608L73.176 64.64C66.008 59.8613 60.0773 57.472 55.384 57.472C50.776 57.472 46.1253 58.9227 41.432 61.824C41.432 66.8587 42.7547 70.9973 45.4 74.24C48.0453 77.3973 51.288 79.8293 55.128 81.536C58.968 83.2427 62.7653 84.9493 66.52 86.656C70.36 88.3627 73.6027 90.8373 76.248 94.08C78.8933 97.2373 80.216 101.333 80.216 106.368C80.216 113.195 77.4427 118.827 71.896 123.264C66.4347 127.701 59.8213 129.92 52.056 129.92C44.2907 129.92 36.952 128.555 30.04 125.824ZM98.002 128L99.794 102.656V68.224L97.49 51.328L98.642 51.2C107.943 49.4933 115.41 48.64 121.042 48.64C137.341 48.64 145.49 55.3813 145.49 68.864C145.49 76.8853 142.418 82.8587 136.274 86.784C146.002 89.856 150.866 96.384 150.866 106.368C150.866 113.536 147.879 119.253 141.906 123.52C136.018 127.787 128.039 129.92 117.97 129.92C110.461 129.92 103.805 129.28 98.002 128ZM111.954 121.344C115.026 121.856 118.397 122.112 122.066 122.112C125.821 122.112 130.002 121.429 134.61 120.064C137.597 116.651 139.09 112.384 139.09 107.264C139.09 102.144 137.597 98.3893 134.61 96C131.623 93.6107 126.93 92.416 120.53 92.416H110.546V102.784L111.698 119.552L111.954 121.344ZM110.546 75.904V84.992H116.434C127.954 84.9067 133.714 79.9573 133.714 70.144C133.714 60.928 128.893 56.32 119.25 56.32C117.031 56.32 114.557 56.5333 111.826 56.96L110.546 75.904Z" fill="#172B4D"/>
</svg>
