<?xml version="1.0" encoding="utf-8"?>
<svg width="428px" height="259px" viewBox="0 0 428 259" version="1.1" xmlns:xlink="http://www.w3.org/1999/xlink" xmlns="http://www.w3.org/2000/svg">
  <defs>
    <path d="M0 0L458 0L458 257L0 257L0 0Z" id="path_1" />
    <path d="M0 23.919L32.072 0L43.379 1.326L77.428 9.76601L73.293 11.729L19.841 37.117L0 23.919L0 23.919Z" id="path_2" />
    <clipPath id="mask_1">
      <use xlink:href="#path_1" />
    </clipPath>
    <clipPath id="mask_2">
      <use xlink:href="#path_2" />
    </clipPath>
  </defs>
  <g id="svg" transform="translate(-15 0.8173218)">
    <path d="M0 0L458 0L458 257L0 257L0 0Z" id="Background" fill="none" fill-rule="evenodd" stroke="none" />
    <g clip-path="url(#mask_1)">
      <path d="M378.165 135.843L361.146 181.929L380.987 195.127L438.574 167.775L456.238 144.003L413.732 130.713L378.165 135.843L378.165 135.843Z" id="Shape" fill="#FFFFFF" stroke="#36B37E" stroke-width="1.63467" stroke-linejoin="round" />
      <path d="M398.19 154.382L400.084 158.369L438.574 167.776L441.206 164.173L456.238 144.004L413.732 130.713L398.19 154.382L398.19 154.382Z" id="Shape" fill="#C5E9DA" stroke="#36B37E" stroke-width="1.63467" stroke-linejoin="round" />
      <path d="M413.732 130.714L400.342 152.817L361.146 181.93" id="Shape" fill="#FFFFFF" stroke="none" />
      <path d="M413.732 130.714L400.342 152.817L361.146 181.93" id="Shape" fill="none" stroke="#36B37E" stroke-width="1.63467" stroke-linejoin="round" />
      <path d="M393.218 158.011L395.042 147.372L405.186 144.726L400.084 158.369L393.218 158.011L393.218 158.011Z" id="Shape" fill="#172B4D" stroke="#36B37E" stroke-width="1.63467" stroke-linejoin="round" />
      <path d="M438.573 167.776L400.083 158.369" id="Shape" fill="none" stroke="#36B37E" stroke-width="1.63467" stroke-linejoin="round" />
      <path d="M425.259 164.509L431.948 159.16L431.224 166.019L426.104 169.717L425.259 164.509L425.259 164.509Z" id="Shape" fill="#FFFFFF" stroke="#36B37E" stroke-width="1.63467" stroke-linejoin="round" />
      <path d="M431.948 159.16L430.298 135.875" id="Shape" fill="none" stroke="#36B37E" stroke-width="1.63467" stroke-linejoin="round" />
      <g id="Mask-group" transform="translate(361.146 158.01001)">
        <path d="M0 23.919L32.072 0L43.379 1.326L77.428 9.76601L73.293 11.729L19.841 37.117L0 23.919L0 23.919Z" id="Shape" fill="none" stroke="none" />
        <g clip-path="url(#mask_2)">
          <g id="Group" transform="translate(-2.790985 -32.925995)">
            <path d="M35.787 44.451L40.18 35.125L49.967 34.775L54.079 25.809L44.749 26.168L49.045 17.115L39.442 17.378L35.146 26.431L30.48 35.66L20.42 35.914L15.658 45.415L5.229 45.844L0 55.792L10.614 55.276L20.955 54.662L25.814 44.889L35.787 44.451L35.787 44.451Z" id="Shape" fill="#36B37E" stroke="none" />
            <path d="M45.574 44.1L55.274 43.565L59.298 34.415L49.967 34.774L45.574 44.1L45.574 44.1Z" id="Shape" fill="#36B37E" stroke="none" />
            <path d="M31.111 54.136L41.18 53.426L45.574 44.1L35.786 44.45L31.111 54.136L31.111 54.136Z" id="Shape" fill="#C5E9DA" stroke="none" />
            <path d="M36.505 63.112L46.39 62.489L50.88 52.891L41.18 53.426L36.505 63.112L36.505 63.112Z" id="Shape" fill="#36B37E" stroke="none" />
            <path d="M26.437 63.823L31.111 54.137L20.955 54.663L16.095 64.436L11.042 74.754L21.48 73.868L31.821 73.255L36.506 63.112L26.437 63.823L26.437 63.823Z" id="Shape" fill="#36B37E" stroke="none" />
            <path d="M58.279 17.027L54.079 25.809L63.41 25.449L59.298 34.415L68.629 34.056L72.556 25.177L76.386 16.571L67.425 16.756L71.343 8.334L75.076 0L66.299 0.0970001L62.381 8.51801L53.148 8.606L49.045 17.115L58.279 17.027L58.279 17.027Z" id="Shape" fill="#36B37E" stroke="none" />
            <path d="M55.274 43.565L50.88 52.891L60.396 52.444L69.823 51.812L73.847 42.662L77.775 33.783L68.629 34.055L64.604 43.206L55.274 43.565L55.274 43.565Z" id="Shape" fill="#36B37E" stroke="none" />
            <path d="M51.871 71.649L56.274 61.867L46.39 62.489L41.987 72.272L51.871 71.649L51.871 71.649Z" id="Shape" fill="#36B37E" stroke="none" />
            <path d="M16.176 75.339L20.188 66.995C20.289 66.783 20.462 66.614 20.676 66.517L81.367 38.983C81.662 38.849 82.004 38.867 82.284 39.03L112.605 56.711C113.375 57.161 113.216 58.318 112.353 58.543L35.579 78.55C35.465 78.58 35.346 78.59 35.228 78.578L16.979 76.768C16.288 76.699 15.875 75.965 16.176 75.339L16.176 75.339Z" id="Shape" fill="#172B4D" stroke="none" />
          </g>
        </g>
      </g>
      <path d="M188.599 185.792L90.9613 190.078C90.6003 190.078 90.0593 190.26 89.6973 190.621L57.1373 223.148C56.7753 223.51 56.5933 224.051 56.5913 224.773L57.9613 255.81C57.9583 256.893 58.8583 257.794 60.1223 257.612L143.876 248.473C144.418 248.291 144.96 248.11 145.322 247.749L163.433 220.294L163.614 220.114L190.396 189.038C191.301 187.773 190.224 185.609 188.599 185.792L188.599 185.792Z" id="Shape" fill="#172B4D" stroke="none" />
      <path d="M149.171 14.2803L39.2303 22.9367L10.7393 66.8804L38.1493 182.439L70.5943 207.635L134.35 202.632L145.942 169.448L178.733 133.45L149.171 14.2803L149.171 14.2803Z" id="Shape" fill="#FFFFFF" stroke="#36B37E" stroke-width="1.55764" stroke-linejoin="round" />
      <path d="M145.942 169.449L87.8672 66.1622L149.171 14.2812L178.733 133.451L145.942 169.449L145.942 169.449Z" id="Shape" fill="#C5E9DA" stroke="#36B37E" stroke-width="1.55764" stroke-linejoin="round" />
      <path d="M134.35 202.633L119.595 122.318L145.943 169.448L134.35 202.633L134.35 202.633Z" id="Shape" fill="#FFFFFF" stroke="#36B37E" stroke-width="1.55764" stroke-linejoin="round" />
      <path d="M10.7393 67.1621L87.8674 66.1621" id="Shape" fill="none" stroke="#36B37E" stroke-width="1.55764" stroke-linejoin="round" />
      <path d="M102.239 53.9658L81.047 55.6928L74.832 66.2218L97.906 83.8578L102.239 53.9658L102.239 53.9658Z" id="Shape" fill="#C5E9DA" stroke="#36B37E" stroke-width="1.55764" stroke-linejoin="round" />
      <g id="Mask-group" transform="translate(0.9536133 0.53125)">
        <g id="Mask">
          <path d="M55.7537 43.1119L70.1807 47.4226L79.7687 37.4843L93.4727 41.7963L83.8857 51.3736L97.4097 55.5056L88.0027 65.2636L74.2977 61.3126L60.2317 57.3616L50.1017 67.4817L35.3137 63.5316L24.8217 74.0126L9.31199 70.0647L20.3457 59.4016L30.8367 48.9207L45.6237 53.2317L55.7537 43.1119L55.7537 43.1119Z" id="Shape" fill="none" stroke="none" />
          <path d="M65.8828 33.353L75.6508 23.5947L89.3558 27.9067L79.7688 37.4842L65.8828 33.353L65.8828 33.353Z" id="Shape" fill="none" stroke="none" />
          <path d="M41.3276 38.7998L51.6376 28.8603L65.8826 33.3521L55.7536 43.1107L41.3276 38.7998L41.3276 38.7998Z" id="Shape" fill="none" stroke="none" />
          <path d="M37.0318 24.3701L47.3417 14.4306L61.7668 19.1026L51.6378 28.8612L37.0318 24.3701L37.0318 24.3701Z" id="Shape" fill="none" stroke="none" />
          <path d="M26.3606 34.3091L41.3276 38.7998L30.8376 48.9203L15.6886 44.6104L0 40.1203L11.0325 29.8188L21.8846 19.6982L37.0316 24.3692L26.3606 34.3091L26.3606 34.3091Z" id="Shape" fill="none" stroke="none" />
          <path d="M106.636 45.9286L93.4725 41.7961L102.698 32.2191L89.3555 27.9065L98.7615 18.5098L111.744 22.8228L124.365 27.1362L115.681 36.5321L128.303 40.4846L140.745 44.6177L132.242 53.8327L119.619 49.8806L110.393 59.4576L97.4095 55.5056L106.636 45.9286L106.636 45.9286Z" id="Shape" fill="none" stroke="none" />
          <path d="M123.376 63.4081L114.511 72.985L101.347 69.2141L110.393 59.4561L123.376 63.4081L123.376 63.4081Z" id="Shape" fill="none" stroke="none" />
          <path d="M145.491 22.2348L136.987 31.4499L124.366 27.1364L133.23 17.9209L145.491 22.2348L145.491 22.2348Z" id="Shape" fill="none" stroke="none" />
          <path d="M75.6516 23.594L61.7666 19.1017L71.3536 9.52425L81.1206 0.126953L94.6446 4.61965L107.806 9.47375L98.7616 18.5091L85.2386 14.0164L75.6516 23.594L75.6516 23.594Z" id="Shape" fill="none" stroke="none" />
          <path d="M43.0447 0L57.2897 4.8526L47.3417 14.4305L32.5547 9.75925L43.0447 0L43.0447 0Z" id="Shape" fill="none" stroke="none" />
          <path d="M6.55713 14.8472L17.4087 4.72656L32.5547 9.75835L21.8847 19.6984L6.55713 14.8472L6.55713 14.8472Z" id="Shape" fill="none" stroke="none" />
          <path d="M101.346 69.2147L92.1194 79.1527L78.2334 75.3817L88.0024 65.2626L101.346 69.2147L101.346 69.2147Z" id="Shape" fill="none" stroke="none" />
        </g>
        <g id="Group" transform="translate(9.500987 14.65235)">
          <path d="M28.2558 8.2724L137.813 0L88.0778 40.7668L69.6468 42.2108L63.2438 52.1428L0 51.9818L28.2558 8.2724L28.2558 8.2724Z" id="Shape" fill="#36B37E" stroke="#36B37E" stroke-width="1.55764" stroke-linejoin="round" />
        </g>
      </g>
    </g>
  </g>
</svg>