<svg width="19" height="20" viewBox="0 0 19 20" xmlns="http://www.w3.org/2000/svg">
<path d="M 18.4 7.5 C 18.4 6.3 18 5.3 17.3 4.3 C 17.6 3.4 17.7 2.3 17.6 1 C 17.6 0.4 17.1 0 16.6 0 C 16.3 0 13.8 0 12.3 1.4 C 11 1.1 9.7 1.1 8.4 1.4 C 7 0 4.5 0 4.1 0 C 3.6 0 3.2 0.4 3.1 1 C 3 2.3 3.1 3.4 3.4 4.3 C 2.7 5.3 2.3 6.4 2.3 7.5 C 2.3 9.9 4.1 12.1 6.9 13.1 C 6.8 13.3 6.7 13.5 6.6 13.8 C 3.7 13.5 2.4 10.7 2.3 10.6 C 2.1 10.1 1.5 9.9 1 10.2 C 0.5 10.4 0.3 11.1 0.5 11.6 C 0.6 11.7 2.4 15.4 6.5 15.9 V 19 C 6.5 19.6 6.9 20 7.5 20 H 13.3 C 13.8 20 14.3 19.6 14.3 19 V 14.9 C 14.3 14.2 14.1 13.6 13.9 13.1 C 16.6 12.1 18.4 9.9 18.4 7.5 Z" fill="rgb(255, 255, 255)"/>
</svg>
